<?xml version="1.0" encoding="utf-8"?>
<!-- Generator: Adobe Illustrator 16.0.0, SVG Export Plug-In . SVG Version: 6.00 Build 0)  -->
<!DOCTYPE svg PUBLIC "-//W3C//DTD SVG 1.1//EN" "http://www.w3.org/Graphics/SVG/1.1/DTD/svg11.dtd">
<svg version="1.1" id="Layer_1" xmlns="http://www.w3.org/2000/svg" xmlns:xlink="http://www.w3.org/1999/xlink" x="0px" y="0px"
	 width="354.545px" height="137.374px" viewBox="0 0 354.545 137.374" enable-background="new 0 0 354.545 137.374"
	 xml:space="preserve">
<path fill="#404040" d="M111.218,106.434c-0.432-1.365-0.719-2.947-0.863-4.746c-1.655,1.871-3.848,3.363-6.581,4.477
	c-2.734,1.115-5.898,1.672-9.494,1.672c-6.113,0-10.59-1.348-13.43-4.045c-2.843-2.697-4.262-6.203-4.262-10.52
	c0-3.811,0.61-6.85,1.834-9.115c1.221-2.266,2.913-4.045,5.071-5.34c2.157-1.295,4.728-2.248,7.713-2.859
	c2.984-0.609,6.238-1.168,9.764-1.672c3.523-0.502,5.896-1.168,7.12-1.996c1.221-0.826,1.834-2.174,1.834-4.045
	c0-1.727-0.81-3.074-2.427-4.045c-1.619-0.973-3.795-1.457-6.527-1.457c-3.237,0-5.557,0.719-6.959,2.158
	c-1.403,1.438-2.284,3.344-2.643,5.717H78.312c0.072-2.732,0.522-5.25,1.35-7.551c0.826-2.303,2.157-4.281,3.991-5.934
	c1.834-1.656,4.224-2.931,7.175-3.83c2.947-0.9,6.543-1.351,10.787-1.351c4.171,0,7.715,0.469,10.627,1.403
	c2.913,0.936,5.249,2.285,7.012,4.045c1.762,1.764,3.038,3.957,3.83,6.582c0.791,2.627,1.187,5.594,1.187,8.9v33.551H111.218z
	 M110.247,80.434c-0.719,0.721-1.763,1.295-3.129,1.727c-1.366,0.432-3.344,0.9-5.934,1.402c-4.027,0.793-6.795,1.799-8.306,3.021
	c-1.51,1.223-2.266,2.984-2.266,5.285c0,3.957,2.266,5.934,6.797,5.934c1.797,0,3.469-0.305,5.017-0.916
	c1.546-0.611,2.876-1.438,3.991-2.482c1.115-1.041,2.014-2.266,2.697-3.668c0.684-1.402,1.026-2.893,1.026-4.477L110.247,80.434z"/>
<path fill="#404040" d="M167.963,99.315c-1.008,2.373-2.822,4.225-5.447,5.555c-2.627,1.332-5.663,1.996-9.116,1.996
	c-4.387,0-8.075-0.771-11.058-2.318c-2.985-1.547-5.394-3.578-7.228-6.096s-3.166-5.43-3.992-8.738
	c-0.828-3.309-1.24-6.689-1.24-10.141c0-4.1,0.609-7.857,1.834-11.275c1.222-3.414,2.875-6.326,4.963-8.738
	c2.084-2.408,4.53-4.279,7.336-5.611c2.804-1.33,5.825-1.996,9.061-1.996c6.616,0,11.579,2.662,14.888,7.986v-6.582h14.024v53.617
	c0,4.027-0.686,7.57-2.049,10.627c-1.368,3.057-3.237,5.609-5.61,7.66c-2.373,2.049-5.177,3.613-8.414,4.693
	c-3.236,1.078-6.688,1.617-10.357,1.617c-3.668,0-7.085-0.521-10.249-1.562c-3.165-1.045-5.88-2.52-8.146-4.424
	c-2.265-1.908-4.045-4.227-5.34-6.959c-1.295-2.734-1.941-5.826-1.941-9.277h13.053c0,3.236,1.06,5.734,3.183,7.498
	c2.12,1.76,4.944,2.643,8.469,2.643c3.738,0,6.904-1.025,9.494-3.074c2.588-2.051,3.883-4.838,3.883-8.361V99.315z M156.42,95.862
	c3.451,0,6.311-1.311,8.576-3.938c2.266-2.623,3.399-6.203,3.399-10.734c0-11.363-3.993-17.045-11.975-17.045
	c-7.984,0-11.976,5.395-11.976,16.182c0,4.748,1.133,8.523,3.399,11.328C150.108,94.459,152.967,95.862,156.42,95.862"/>
<path fill="#404040" d="M221.904,106.434c-0.433-1.365-0.72-2.947-0.864-4.746c-1.654,1.871-3.848,3.363-6.581,4.477
	c-2.733,1.115-5.897,1.672-9.493,1.672c-6.113,0-10.592-1.348-13.431-4.045c-2.843-2.697-4.263-6.203-4.263-10.52
	c0-3.811,0.611-6.85,1.834-9.115s2.914-4.045,5.07-5.34c2.158-1.295,4.729-2.248,7.715-2.859c2.982-0.609,6.238-1.168,9.764-1.672
	c3.521-0.502,5.896-1.168,7.119-1.996c1.222-0.826,1.834-2.174,1.834-4.045c0-1.727-0.809-3.074-2.428-4.045
	c-1.617-0.973-3.793-1.457-6.525-1.457c-3.238,0-5.557,0.719-6.958,2.158c-1.404,1.438-2.286,3.344-2.644,5.717h-13.055
	c0.072-2.732,0.521-5.25,1.348-7.551c0.826-2.303,2.158-4.281,3.992-5.934c1.834-1.656,4.225-2.931,7.174-3.83
	c2.949-0.9,6.545-1.351,10.789-1.351c4.17,0,7.713,0.469,10.627,1.403c2.912,0.936,5.248,2.285,7.012,4.045
	c1.763,1.764,3.037,3.957,3.83,6.582c0.791,2.627,1.187,5.594,1.187,8.9v33.551H221.904z M220.932,80.434
	c-0.721,0.721-1.764,1.295-3.129,1.727c-1.367,0.432-3.345,0.9-5.934,1.402c-4.029,0.793-6.796,1.799-8.307,3.021
	c-1.51,1.223-2.266,2.984-2.266,5.285c0,3.957,2.266,5.934,6.797,5.934c1.797,0,3.469-0.305,5.017-0.916
	c1.546-0.611,2.876-1.438,3.991-2.482c1.115-1.041,2.014-2.266,2.697-3.668c0.682-1.402,1.025-2.893,1.025-4.477L220.932,80.434z"/>
<path fill="#404040" d="M275.627,106.434V74.286c0-4.1-0.685-6.867-2.049-8.307c-1.367-1.438-3.705-2.158-7.014-2.158
	c-7.264,0-10.895,4.064-10.895,12.191v30.422h-14.025V53.356h13.378v7.768c1.653-3.021,3.847-5.305,6.581-6.852
	c2.732-1.545,6.256-2.319,10.572-2.319c2.516,0,4.854,0.379,7.012,1.133c2.158,0.757,4.008,1.89,5.557,3.397
	c1.545,1.512,2.768,3.365,3.668,5.559c0.898,2.195,1.348,4.729,1.348,7.605v36.787H275.627z"/>
<path fill="#404040" d="M333.452,99.315c-1.008,2.373-2.822,4.225-5.447,5.555c-2.626,1.332-5.664,1.996-9.116,1.996
	c-4.388,0-8.075-0.771-11.058-2.318c-2.985-1.547-5.396-3.578-7.229-6.096s-3.165-5.43-3.991-8.738
	c-0.828-3.309-1.24-6.689-1.24-10.141c0-4.1,0.609-7.857,1.834-11.275c1.223-3.414,2.875-6.326,4.963-8.738
	c2.084-2.408,4.531-4.279,7.336-5.611c2.805-1.33,5.826-1.996,9.062-1.996c6.615,0,11.578,2.662,14.887,7.986v-6.582h14.024v53.617
	c0,4.027-0.683,7.57-2.049,10.627c-1.367,3.057-3.237,5.609-5.61,7.66c-2.373,2.049-5.179,3.613-8.414,4.693
	c-3.236,1.078-6.688,1.617-10.356,1.617s-7.085-0.521-10.249-1.562c-3.166-1.045-5.881-2.52-8.146-4.424
	c-2.265-1.908-4.045-4.227-5.34-6.959c-1.295-2.734-1.941-5.826-1.941-9.277h13.055c0,3.236,1.059,5.734,3.182,7.498
	c2.12,1.76,4.944,2.643,8.469,2.643c3.738,0,6.904-1.025,9.494-3.074c2.588-2.051,3.883-4.838,3.883-8.361V99.315z M321.909,95.862
	c3.453,0,6.312-1.311,8.576-3.938c2.266-2.623,3.399-6.203,3.399-10.734c0-11.363-3.992-17.045-11.976-17.045
	c-7.982,0-11.976,5.395-11.976,16.182c0,4.748,1.134,8.523,3.399,11.328C315.597,94.459,318.458,95.862,321.909,95.862"/>
<path fill="#F9CF2D" d="M37.727,17.962c-0.156-0.228-2.423-5.226-2.423-5.226C34.303,9.173,36.795,5.5,40.63,4.569
	c3.837-0.928,7.756,1.205,8.757,4.771l12.012,43.254L37.727,17.962z"/>
<path fill="#F9CF2A" stroke="#FFFFFF" stroke-width="2" stroke-miterlimit="10" d="M37.727,17.962
	c-0.156-0.228-2.423-5.226-2.423-5.226C34.303,9.173,36.795,5.5,40.63,4.569c3.837-0.928,7.756,1.205,8.757,4.771l12.012,43.254
	L37.727,17.962z"/>
<path fill="#F9CF2A" d="M59.011,25.031l0.046-0.772c0.15-2.535,2.484-4.476,5.209-4.334c2.726,0.141,4.813,2.308,4.662,4.842
	l-1.849,31.018L59.011,25.031z"/>
<path fill="#F9CF2D" d="M11.163,81.167c4.084-2.062,9.19-0.654,11.406,3.141c3.116,5.338,9.106,8.654,15.632,8.654
	c9.798,0,17.768-7.406,17.768-16.516c0-9.104-7.97-16.512-17.768-16.512c-6.089,0-11.686,2.85-14.977,7.623
	c-1.607,2.33-4.319,3.604-7.092,3.604c-1.551,0-3.125-0.4-4.529-1.236c-3.913-2.33-5.053-7.164-2.545-10.801
	c3.068-4.453,7.312-8.17,12.277-10.75c4.308-2.242,9.113-3.594,14.041-3.969L11.701,20.709c-2.704-3.508-1.834-8.392,1.942-10.905
	c3.78-2.513,9.034-1.705,11.739,1.806L66.27,57.651l0.24,0.311c1.407,1.861,2.599,3.854,3.561,5.969
	c1.807,3.971,2.721,8.182,2.721,12.516c0,0.992-0.049,1.977-0.145,2.953c-0.32,3.297-1.183,6.502-2.576,9.566
	c-1.742,3.828-4.236,7.266-7.409,10.217c-3.175,2.949-6.874,5.268-10.995,6.887c-4.269,1.678-8.799,2.529-13.466,2.529
	c-12.701,0-24.358-6.451-30.42-16.832C5.564,87.971,7.079,83.225,11.163,81.167"/>
<path fill="#F6A326" stroke="#FFFFFF" stroke-width="3" stroke-miterlimit="10" d="M11.163,81.167
	c4.084-2.062,9.19-0.654,11.406,3.141c3.116,5.338,9.106,8.654,15.632,8.654c9.798,0,17.768-7.406,17.768-16.516
	c0-9.104-7.97-16.512-17.768-16.512c-6.089,0-11.686,2.85-14.977,7.623c-1.607,2.33-4.319,3.604-7.092,3.604
	c-1.551,0-3.125-0.4-4.529-1.236c-3.913-2.33-5.053-7.164-2.545-10.801c3.068-4.453,7.312-8.17,12.277-10.75
	c4.308-2.242,9.113-3.594,14.041-3.969L11.701,20.709c-2.704-3.508-1.834-8.392,1.942-10.905c3.78-2.513,9.034-1.705,11.739,1.806
	L66.27,57.651l0.24,0.311c1.407,1.861,2.599,3.854,3.561,5.969c1.807,3.971,2.721,8.182,2.721,12.516
	c0,0.992-0.049,1.977-0.145,2.953c-0.32,3.297-1.183,6.502-2.576,9.566c-1.742,3.828-4.236,7.266-7.409,10.217
	c-3.175,2.949-6.874,5.268-10.995,6.887c-4.269,1.678-8.799,2.529-13.466,2.529c-12.701,0-24.358-6.451-30.42-16.832
	C5.564,87.971,7.079,83.225,11.163,81.167z"/>
<path fill="#F9CF29" stroke="#FFFFFF" stroke-width="2" stroke-miterlimit="10" d="M131.395-153.871
	c-0.156-0.227-2.422-5.225-2.422-5.225c-1.002-3.564,1.49-7.238,5.326-8.168s7.756,1.205,8.756,4.771l12.012,43.254L131.395-153.871
	z"/>
<path fill="#F9CF29" d="M152.68-146.802l0.045-0.773c0.15-2.533,2.484-4.475,5.209-4.334c2.727,0.142,4.814,2.309,4.662,4.843
	l-1.848,31.018L152.68-146.802z"/>
<path fill="#F7A327" stroke="#FFFFFF" stroke-width="3" stroke-miterlimit="10" d="M104.831-90.668
	c4.084-2.061,9.191-0.654,11.406,3.143c3.117,5.336,9.105,8.654,15.633,8.654c9.797,0,17.768-7.408,17.768-16.516
	c0-9.105-7.971-16.514-17.768-16.514c-6.09,0-11.688,2.85-14.979,7.625c-1.605,2.328-4.318,3.602-7.092,3.602
	c-1.551,0-3.125-0.398-4.527-1.236c-3.914-2.33-5.055-7.164-2.547-10.8c3.068-4.451,7.312-8.17,12.277-10.75
	c4.309-2.24,9.113-3.593,14.041-3.969l-23.674-23.693c-2.705-3.51-1.834-8.393,1.941-10.906c3.779-2.514,9.033-1.705,11.738,1.806
	l40.889,46.042l0.24,0.311c1.406,1.859,2.6,3.853,3.561,5.968c1.807,3.969,2.721,8.182,2.721,12.516
	c0,0.992-0.049,1.975-0.145,2.951c-0.32,3.297-1.184,6.502-2.576,9.566c-1.742,3.828-4.236,7.266-7.408,10.217
	c-3.176,2.949-6.875,5.268-10.996,6.887c-4.268,1.678-8.799,2.529-13.465,2.529c-12.701,0-24.359-6.449-30.42-16.832
	C99.233-83.863,100.747-88.609,104.831-90.668z"/>
</svg>
