<?xml version="1.0" encoding="UTF-8"?>
<svg version="1.1" xmlns="http://www.w3.org/2000/svg" width="512" height="512">
<path d="M0 0 C2.0841681 -0.01006458 4.168327 -0.02221694 6.25247192 -0.0362854 C11.88500879 -0.06748769 17.51711677 -0.06703493 23.14971828 -0.05877972 C27.86599768 -0.05460428 32.58219422 -0.06561557 37.29845929 -0.07642388 C48.43374132 -0.10152365 59.56881105 -0.10047005 70.70410156 -0.08300781 C82.15820306 -0.06549958 93.61160767 -0.0918576 105.06560588 -0.13997436 C114.92933355 -0.1798581 124.79284216 -0.19236434 134.65664601 -0.1832602 C140.53469172 -0.17809764 146.4122702 -0.18296999 152.29024506 -0.21422577 C157.82284187 -0.24244534 163.3543914 -0.2361994 168.88695908 -0.20450974 C170.90562106 -0.19850051 172.92436069 -0.20416498 174.94294357 -0.22301865 C188.05064702 -0.33623011 197.66661911 1.4710773 209.24707031 7.67871094 C210.92861818 8.49932281 212.61166319 9.31689587 214.29785156 10.12792969 C215.7226771 10.86586971 217.14333311 11.61191957 218.55957031 12.36621094 C219.33953369 12.77991943 220.11949707 13.19362793 220.9230957 13.61987305 C234.38662164 20.88147875 247.27092008 29.15697522 259.24707031 38.67871094 C260.15457031 39.39414062 261.06207031 40.10957031 261.99707031 40.84667969 C269.02567192 46.48753183 275.71897881 52.47031436 282.24707031 58.67871094 C282.81361328 59.21657227 283.38015625 59.75443359 283.96386719 60.30859375 C292.04087616 68.03307029 299.27047801 76.05742329 305.97216797 84.99804688 C307.19710767 86.61284674 308.46162906 88.19738754 309.72753906 89.78027344 C316.345324 98.09195881 322.12507732 106.82427471 327.59388363 115.9296242 C328.66696309 117.71404973 329.74868967 119.49331428 330.84049308 121.26634538 C339.96583612 136.27790183 343.01479081 148.19485897 342.81567383 165.63305664 C342.83363239 167.92925298 342.85665122 170.22541433 342.88426208 172.52151489 C342.94259428 178.68569564 342.92637317 184.84746798 342.89190793 191.01174569 C342.87043972 196.19001257 342.88765569 201.36786729 342.90484661 206.54612797 C342.94759851 219.47483144 342.91957722 232.40209063 342.85622483 245.33064445 C342.80674743 255.79551764 342.82302506 266.2586164 342.88696289 276.72338867 C342.96165817 288.95161647 342.99129534 301.17855223 342.95826477 313.40701741 C342.94101332 319.85226232 342.94088058 326.29617423 342.98834419 332.74129677 C343.31764509 383.58360163 343.31764509 383.58360163 328.24707031 404.67871094 C327.14591669 406.4003307 326.05592124 408.12914602 324.9780426 409.86543274 C322.24075722 414.2681054 319.2892286 418.48276821 316.24707031 422.67871094 C315.74820312 423.37673828 315.24933594 424.07476562 314.73535156 424.79394531 C308.12371188 434.01454821 301.03385298 442.43457206 293.24707031 450.67871094 C291.68062127 452.44605198 290.11791806 454.21672249 288.55957031 455.99121094 C285.35552755 459.55818951 282.04220387 462.77331479 278.37597656 465.85839844 C275.94797793 467.93444864 273.63931394 470.11803893 271.30957031 472.30371094 C261.23214093 481.45240886 250.33897398 489.54359582 238.87207031 496.86621094 C238.19144531 497.30433105 237.51082031 497.74245117 236.80957031 498.19384766 C235.3240612 499.12060277 233.81523 500.01062214 232.28967762 500.86986732 C230.02159299 502.21825375 227.98828929 503.58799584 225.8675108 505.1333828 C210.56119012 515.46439766 193.51259367 514.04720632 175.83094442 513.83936715 C171.16934934 513.79575943 166.50787233 513.81082569 161.84613037 513.81838989 C153.78993055 513.82360711 145.73454712 513.79251155 137.67855263 513.73601151 C126.03140817 513.65437886 114.38465426 513.62866041 102.73725476 513.61613159 C83.83559966 513.5943016 64.93437869 513.5279063 46.03295898 513.43310547 C27.68337154 513.34116867 9.33390245 513.27045652 -9.01586914 513.22802734 C-10.71544949 513.22408649 -10.71544949 513.22408649 -12.4493648 513.22006603 C-18.13415316 513.20701467 -23.81894234 513.19437782 -29.50373209 513.18194699 C-76.58709846 513.07845534 -123.66999155 512.90247847 -170.75292969 512.67871094 C-170.86955502 500.62049775 -170.95801226 488.56242205 -171.01199055 476.50375652 C-171.03791718 470.90244599 -171.07300032 465.30152557 -171.13012695 459.70043945 C-171.18505755 454.27981122 -171.21447698 448.85955461 -171.2273159 443.4386692 C-171.23644753 441.38611831 -171.25427392 439.33358425 -171.28157997 437.28119469 C-171.43748846 425.05983179 -170.48170259 414.27842595 -166.89054871 402.55793762 C-164.58308182 394.98896423 -165.1359113 389.99053617 -168.24560547 382.77037048 C-172.00387171 372.97819144 -171.50128621 362.86775214 -171.49511719 352.5246582 C-171.51174485 350.31361865 -171.5303863 348.10259347 -171.5508728 345.8915863 C-171.599053 339.9199312 -171.61512774 333.94861941 -171.62214661 327.97678876 C-171.62794693 324.23399425 -171.64061652 320.49128617 -171.65563965 316.74851799 C-171.70511951 304.33075863 -171.73310459 291.91316971 -171.73418427 279.49532152 C-171.73424721 278.82824481 -171.73431015 278.16116811 -171.734375 277.47387695 C-171.73443291 276.80596695 -171.73449081 276.13805694 -171.73455048 275.44990724 C-171.73686894 264.64739087 -171.7925207 253.84589148 -171.87228799 243.0436951 C-171.95390961 231.90005394 -171.99254757 220.75683141 -171.99125481 209.6128754 C-171.99128298 203.37717243 -172.00805326 197.14269166 -172.06878662 190.90725899 C-172.12458877 185.03198498 -172.12610346 179.15900456 -172.08858109 173.28360939 C-172.08368752 171.14690243 -172.0969923 169.01004946 -172.13148117 166.87361526 C-172.38402237 150.15514277 -167.96059643 138.15059806 -159.75292969 123.67871094 C-159.28432274 122.841801 -158.81571579 122.00489105 -158.33290863 121.14262021 C-150.99560914 108.11238598 -142.01272578 96.39294164 -132.75292969 84.67871094 C-132.29112305 84.08944824 -131.82931641 83.50018555 -131.35351562 82.89306641 C-125.23780571 75.10559663 -118.55381839 67.8645556 -111.75292969 60.67871094 C-111.00269531 59.87433594 -110.25246094 59.06996094 -109.47949219 58.24121094 C-103.62145508 52.14362584 -97.08475262 47.07672155 -90.38964844 41.94824219 C-88.15903922 40.21805604 -85.99108842 38.41475549 -83.81542969 36.61621094 C-73.22367082 28.14971527 -61.63324673 21.21637637 -49.73925781 14.7578125 C-47.76504987 13.6852954 -45.79796181 12.60048355 -43.83105469 11.51464844 C-42.55551912 10.81840795 -41.2794961 10.12305956 -40.00292969 9.42871094 C-38.89433594 8.82542969 -37.78574219 8.22214844 -36.64355469 7.60058594 C-35.34727681 6.95875355 -34.05034338 6.31824425 -32.75292969 5.67871094 C-32.00206463 5.26371212 -31.25119957 4.8487133 -30.47758102 4.42113876 C-20.55257577 -0.48468078 -10.80693826 -0.04179999 0 0 Z " fill="#40C251" transform="translate(170.7529296875,-0.6787109375)"/>
<path d="M0 0 C2.0841681 -0.01006458 4.168327 -0.02221694 6.25247192 -0.0362854 C11.88500879 -0.06748769 17.51711677 -0.06703493 23.14971828 -0.05877972 C27.86599768 -0.05460428 32.58219422 -0.06561557 37.29845929 -0.07642388 C48.43374132 -0.10152365 59.56881105 -0.10047005 70.70410156 -0.08300781 C82.15820306 -0.06549958 93.61160767 -0.0918576 105.06560588 -0.13997436 C114.92933355 -0.1798581 124.79284216 -0.19236434 134.65664601 -0.1832602 C140.53469172 -0.17809764 146.4122702 -0.18296999 152.29024506 -0.21422577 C157.82284187 -0.24244534 163.3543914 -0.2361994 168.88695908 -0.20450974 C170.90562106 -0.19850051 172.92436069 -0.20416498 174.94294357 -0.22301865 C188.05064702 -0.33623011 197.66661911 1.4710773 209.24707031 7.67871094 C210.92861818 8.49932281 212.61166319 9.31689587 214.29785156 10.12792969 C215.7226771 10.86586971 217.14333311 11.61191957 218.55957031 12.36621094 C219.33953369 12.77991943 220.11949707 13.19362793 220.9230957 13.61987305 C234.38662164 20.88147875 247.27092008 29.15697522 259.24707031 38.67871094 C260.15457031 39.39414062 261.06207031 40.10957031 261.99707031 40.84667969 C269.02567192 46.48753183 275.71897881 52.47031436 282.24707031 58.67871094 C282.81361328 59.21657227 283.38015625 59.75443359 283.96386719 60.30859375 C292.04087616 68.03307029 299.27047801 76.05742329 305.97216797 84.99804688 C307.19710767 86.61284674 308.46162906 88.19738754 309.72753906 89.78027344 C316.345324 98.09195881 322.12507732 106.82427471 327.59388363 115.9296242 C328.66696309 117.71404973 329.74868967 119.49331428 330.84049308 121.26634538 C339.96583612 136.27790183 343.01479081 148.19485897 342.81567383 165.63305664 C342.83363239 167.92925298 342.85665122 170.22541433 342.88426208 172.52151489 C342.94259428 178.68569564 342.92637317 184.84746798 342.89190793 191.01174569 C342.87043972 196.19001257 342.88765569 201.36786729 342.90484661 206.54612797 C342.94759851 219.47483144 342.91957722 232.40209063 342.85622483 245.33064445 C342.80674743 255.79551764 342.82302506 266.2586164 342.88696289 276.72338867 C342.96165817 288.95161647 342.99129534 301.17855223 342.95826477 313.40701741 C342.94101332 319.85226232 342.94088058 326.29617423 342.98834419 332.74129677 C343.31764509 383.58360163 343.31764509 383.58360163 328.24707031 404.67871094 C327.14591669 406.4003307 326.05592124 408.12914602 324.9780426 409.86543274 C322.24075722 414.2681054 319.2892286 418.48276821 316.24707031 422.67871094 C315.74820312 423.37673828 315.24933594 424.07476562 314.73535156 424.79394531 C308.12371188 434.01454821 301.03385298 442.43457206 293.24707031 450.67871094 C291.68062127 452.44605198 290.11791806 454.21672249 288.55957031 455.99121094 C285.35552755 459.55818951 282.04220387 462.77331479 278.37597656 465.85839844 C275.94797793 467.93444864 273.63931394 470.11803893 271.30957031 472.30371094 C261.23214093 481.45240886 250.33897398 489.54359582 238.87207031 496.86621094 C238.19144531 497.30433105 237.51082031 497.74245117 236.80957031 498.19384766 C235.3240612 499.12060277 233.81523 500.01062214 232.28967762 500.86986732 C230.02159299 502.21825375 227.98828929 503.58799584 225.8675108 505.1333828 C210.56119012 515.46439766 193.51259367 514.04720632 175.83094442 513.83936715 C171.16934934 513.79575943 166.50787233 513.81082569 161.84613037 513.81838989 C153.78993055 513.82360711 145.73454712 513.79251155 137.67855263 513.73601151 C126.03140817 513.65437886 114.38465426 513.62866041 102.73725476 513.61613159 C83.83559966 513.5943016 64.93437869 513.5279063 46.03295898 513.43310547 C27.68337154 513.34116867 9.33390245 513.27045652 -9.01586914 513.22802734 C-10.71544949 513.22408649 -10.71544949 513.22408649 -12.4493648 513.22006603 C-18.13415316 513.20701467 -23.81894234 513.19437782 -29.50373209 513.18194699 C-76.58709846 513.07845534 -123.66999155 512.90247847 -170.75292969 512.67871094 C-170.86955502 500.62049775 -170.95801226 488.56242205 -171.01199055 476.50375652 C-171.03791718 470.90244599 -171.07300032 465.30152557 -171.13012695 459.70043945 C-171.18505755 454.27981122 -171.21447698 448.85955461 -171.2273159 443.4386692 C-171.23644753 441.38611831 -171.25427392 439.33358425 -171.28157997 437.28119469 C-171.43748846 425.05983179 -170.48170259 414.27842595 -166.89054871 402.55793762 C-164.58308182 394.98896423 -165.1359113 389.99053617 -168.24560547 382.77037048 C-172.00387171 372.97819144 -171.50128621 362.86775214 -171.49511719 352.5246582 C-171.51174485 350.31361865 -171.5303863 348.10259347 -171.5508728 345.8915863 C-171.599053 339.9199312 -171.61512774 333.94861941 -171.62214661 327.97678876 C-171.62794693 324.23399425 -171.64061652 320.49128617 -171.65563965 316.74851799 C-171.70511951 304.33075863 -171.73310459 291.91316971 -171.73418427 279.49532152 C-171.73424721 278.82824481 -171.73431015 278.16116811 -171.734375 277.47387695 C-171.73443291 276.80596695 -171.73449081 276.13805694 -171.73455048 275.44990724 C-171.73686894 264.64739087 -171.7925207 253.84589148 -171.87228799 243.0436951 C-171.95390961 231.90005394 -171.99254757 220.75683141 -171.99125481 209.6128754 C-171.99128298 203.37717243 -172.00805326 197.14269166 -172.06878662 190.90725899 C-172.12458877 185.03198498 -172.12610346 179.15900456 -172.08858109 173.28360939 C-172.08368752 171.14690243 -172.0969923 169.01004946 -172.13148117 166.87361526 C-172.38402237 150.15514277 -167.96059643 138.15059806 -159.75292969 123.67871094 C-159.28432274 122.841801 -158.81571579 122.00489105 -158.33290863 121.14262021 C-150.99560914 108.11238598 -142.01272578 96.39294164 -132.75292969 84.67871094 C-132.29112305 84.08944824 -131.82931641 83.50018555 -131.35351562 82.89306641 C-125.23780571 75.10559663 -118.55381839 67.8645556 -111.75292969 60.67871094 C-111.00269531 59.87433594 -110.25246094 59.06996094 -109.47949219 58.24121094 C-103.62145508 52.14362584 -97.08475262 47.07672155 -90.38964844 41.94824219 C-88.15903922 40.21805604 -85.99108842 38.41475549 -83.81542969 36.61621094 C-73.22367082 28.14971527 -61.63324673 21.21637637 -49.73925781 14.7578125 C-47.76504987 13.6852954 -45.79796181 12.60048355 -43.83105469 11.51464844 C-42.55551912 10.81840795 -41.2794961 10.12305956 -40.00292969 9.42871094 C-38.89433594 8.82542969 -37.78574219 8.22214844 -36.64355469 7.60058594 C-35.34727681 6.95875355 -34.05034338 6.31824425 -32.75292969 5.67871094 C-32.00206463 5.26371212 -31.25119957 4.8487133 -30.47758102 4.42113876 C-20.55257577 -0.48468078 -10.80693826 -0.04179999 0 0 Z M4.24707031 59.67871094 C3.46332031 60.01628418 2.67957031 60.35385742 1.87207031 60.70166016 C-19.29207133 69.96521174 -38.51726706 82.62668587 -55.37011719 98.44824219 C-57.48894096 100.43160018 -59.65770519 102.31111033 -61.87792969 104.17871094 C-75.58429068 116.19600522 -86.68204847 131.96463248 -95.75292969 147.67871094 C-96.46237856 148.8397781 -97.1733727 149.99990217 -97.88574219 151.15917969 C-107.36402653 166.90506008 -114.5922715 184.77156444 -118.75292969 202.67871094 C-118.91986328 203.38092773 -119.08679688 204.08314453 -119.25878906 204.80664062 C-125.29789376 230.50008787 -127.46740882 257.57194212 -122.75292969 283.67871094 C-122.51323926 285.36304052 -122.27792852 287.0479965 -122.04589844 288.73339844 C-117.82143524 317.82620762 -106.75653829 346.26677648 -90.20214844 370.59277344 C-87.695599 375.93016982 -89.83046732 381.38858453 -91.33105469 386.88183594 C-91.49970032 387.50229797 -91.66834595 388.12276001 -91.84210205 388.76202393 C-92.47252603 391.06943116 -93.11188047 393.37423246 -93.75292969 395.67871094 C-94.16321411 397.15392212 -94.16321411 397.15392212 -94.58178711 398.65893555 C-97.23259838 408.17707416 -99.8913908 417.69302674 -102.56396484 427.20507812 C-103.5835788 430.83594471 -104.59835493 434.46813415 -105.61230469 438.10058594 C-105.92786316 439.21923035 -106.24342163 440.33787476 -106.56854248 441.49041748 C-106.85594299 442.52289612 -107.14334351 443.55537476 -107.43945312 444.61914062 C-107.69386169 445.52653992 -107.94827026 446.43393921 -108.21038818 447.36883545 C-108.86725794 449.77000852 -108.86725794 449.77000852 -108.75292969 452.67871094 C-107.78500488 452.43636719 -106.81708008 452.19402344 -105.81982422 451.94433594 C-99.43673521 450.34697861 -93.0532963 448.75118695 -86.66619873 447.16992188 C-83.99147972 446.50755877 -81.31725722 445.8432029 -78.64306641 445.17871094 C-77.2962686 444.84454061 -75.94926184 444.51121133 -74.60205078 444.17871094 C-64.44911698 441.6716928 -54.38513835 438.9198289 -44.35009766 435.97314453 C-42.48708609 435.42814547 -40.62018313 434.89649453 -38.75292969 434.36621094 C-37.55667969 434.01945312 -36.36042969 433.67269531 -35.12792969 433.31542969 C-28.06206399 431.98240178 -23.93209783 434.5156996 -18.19042969 438.17871094 C23.8279713 463.85791022 74.24670519 470.09427209 122.24707031 462.67871094 C122.95524902 462.57187988 123.66342773 462.46504883 124.39306641 462.35498047 C143.09938314 459.42263893 161.30766836 453.0162183 178.24707031 444.67871094 C179.02002441 444.30375488 179.79297852 443.92879883 180.58935547 443.54248047 C197.81693533 435.11300844 212.95280408 424.41797136 227.24707031 411.67871094 C228.04201904 410.97633301 228.04201904 410.97633301 228.85302734 410.25976562 C235.07689437 404.74456603 240.98597095 399.13799028 246.24707031 392.67871094 C247.13626622 391.6252183 248.02560192 390.57184365 248.91503906 389.51855469 C264.16794713 371.21154588 275.37700758 350.72715259 284.24707031 328.67871094 C284.67761719 327.61910156 285.10816406 326.55949219 285.55175781 325.46777344 C304.7031655 275.38862663 300.78939209 217.1903104 279.63769531 168.50683594 C268.40823594 143.79056459 253.06609381 123.06165132 234.24707031 103.67871094 C233.6724707 103.08292236 233.09787109 102.48713379 232.50585938 101.87329102 C228.71961092 98.00662946 224.78832765 94.53452982 220.49707031 91.24121094 C219.88710205 90.76949463 219.27713379 90.29777832 218.64868164 89.81176758 C216.85256276 88.42820393 215.05008316 87.05326977 213.24707031 85.67871094 C212.33828125 84.97488281 211.42949219 84.27105469 210.49316406 83.54589844 C197.51157051 73.7552004 183.13943192 66.11792292 168.24707031 59.67871094 C167.52938477 59.36804687 166.81169922 59.05738281 166.07226562 58.73730469 C148.83137247 51.39552569 130.79741603 47.13918898 112.24707031 44.67871094 C111.15906128 44.53405396 111.15906128 44.53405396 110.04907227 44.38647461 C74.63450746 40.25961394 36.96580892 45.52323193 4.24707031 59.67871094 Z " fill="#FAFBFA" transform="translate(170.7529296875,-0.6787109375)"/>
<path d="M0 0 C1.66579102 -0.03577148 1.66579102 -0.03577148 3.36523438 -0.07226562 C4.44224609 -0.07033203 5.51925781 -0.06839844 6.62890625 -0.06640625 C7.60029541 -0.06713135 8.57168457 -0.06785645 9.57250977 -0.06860352 C14.6641855 1.05299698 17.51929783 4.13913122 20.24047852 8.35742188 C20.73990967 9.40478516 21.23934082 10.45214844 21.75390625 11.53125 C22.03843155 12.12570923 22.32295685 12.72016846 22.61610413 13.3326416 C26.45268829 21.49958128 29.84886032 29.86994979 33.22875977 38.23339844 C34.38623126 41.09022052 35.56090697 43.9395862 36.73632812 46.7890625 C37.48021612 48.61936549 38.22309237 50.45008008 38.96484375 52.28125 C39.48968605 53.54696838 39.48968605 53.54696838 40.02513123 54.83825684 C42.12768563 60.10015703 43.51911915 64.44605396 41.58203125 70.02734375 C37.10360793 78.34066328 31.09720866 85.08819891 24.76269531 92.01953125 C22.43369056 94.73126855 21.43310218 96.05800718 21.46484375 99.69921875 C22.7240107 104.70048828 25.06584936 108.18690471 28 112.375 C28.54648193 113.17180176 29.09296387 113.96860352 29.65600586 114.78955078 C49.88071012 144.01924127 78.08905424 169.34757853 112.4375 180.5625 C115.49347153 181.18251278 115.49347153 181.18251278 118.4375 180.5625 C121.1234971 178.40309764 121.1234971 178.40309764 123.4375 175.5625 C124.58798828 174.3559375 124.58798828 174.3559375 125.76171875 173.125 C130.87018928 167.58589807 135.61379809 161.92180328 140.12573242 155.890625 C145.49565132 148.72629977 145.49565132 148.72629977 149.3125 148.0625 C161.55155327 148.71466423 174.77348886 157.37115925 185.57006836 162.63720703 C188.51917603 164.07182836 191.47704898 165.48720821 194.43554688 166.90234375 C196.32348027 167.81915281 198.21087049 168.73708144 200.09765625 169.65625 C200.97680191 170.07410767 201.85594757 170.49196533 202.76173401 170.92248535 C207.35853002 173.19058678 210.64525425 175.07858451 213.4375 179.5625 C215.62637532 189.22694102 211.88042514 202.99130447 207.4375 211.5625 C204.75166273 215.25895907 201.74506229 218.41769077 198.4375 221.5625 C197.70789063 222.26246094 196.97828125 222.96242188 196.2265625 223.68359375 C180.95023839 237.05689455 164.30904294 239.45741337 144.71289062 238.78466797 C136.34861914 238.21732397 128.42302528 236.00353681 120.4375 233.5625 C119.57705078 233.30549316 118.71660156 233.04848633 117.83007812 232.78369141 C84.151562 222.58623736 54.02057542 206.59410221 28.41015625 182.32421875 C26.41887686 180.44259926 24.37892105 178.66347173 22.2578125 176.9296875 C19.99541465 175.03077739 18.12990446 173.25286138 16.25 171 C13.36790419 167.60707321 10.36815936 164.36249105 7.3125 161.125 C-12.65475052 139.54409498 -31.1307287 113.50412247 -40.5625 85.5625 C-40.8925 84.58796875 -41.2225 83.6134375 -41.5625 82.609375 C-44.75309083 72.6080999 -44.80026333 63.0014424 -44.5625 52.5625 C-44.54574219 51.74523437 -44.52898437 50.92796875 -44.51171875 50.0859375 C-43.53733376 35.21960657 -35.33278278 21.35467072 -25.5625 10.5625 C-25.07644287 10.02230225 -24.59038574 9.48210449 -24.08959961 8.92553711 C-16.66435449 1.064605 -10.59458643 -0.1048969 0 0 Z " fill="#FEFEFE" transform="translate(172.5625,136.4375)"/>
<path d="M0 0 C10.80606292 -0.163182 21.61182617 -0.28706717 32.41887665 -0.3626852 C37.43871509 -0.39900386 42.45770216 -0.44815581 47.47705078 -0.52807617 C52.33361506 -0.60490849 57.18936775 -0.64615031 62.04649353 -0.6641407 C63.88668065 -0.67693797 65.7268303 -0.7019229 67.56666565 -0.7401104 C80.39741023 -0.99549696 89.65866059 0.96992963 101 7 C102.68187079 7.81994984 104.36499368 8.63735216 106.05078125 9.44921875 C107.47560679 10.18715877 108.89626279 10.93320863 110.3125 11.6875 C111.09246338 12.1012085 111.87242676 12.51491699 112.67602539 12.94116211 C126.13955133 20.20276781 139.02384977 28.47826428 151 38 C151.9075 38.71542969 152.815 39.43085937 153.75 40.16796875 C160.77860161 45.80882089 167.47190849 51.79160342 174 58 C174.56654297 58.53786133 175.13308594 59.07572266 175.71679688 59.62988281 C183.79380585 67.35435935 191.0234077 75.37871235 197.72509766 84.31933594 C198.95003736 85.9341358 200.21455875 87.51867661 201.48046875 89.1015625 C208.09825369 97.41324787 213.878007 106.14556377 219.34681332 115.25091326 C220.41989278 117.03533879 221.50161935 118.81460334 222.59342277 120.58763444 C231.71876581 135.59919089 234.7677205 147.51614803 234.56860352 164.9543457 C234.58656208 167.25054205 234.6095809 169.54670339 234.63719177 171.84280396 C234.69552396 178.0069847 234.67930286 184.16875704 234.64483762 190.33303475 C234.62336941 195.51130163 234.64058538 200.68915636 234.6577763 205.86741704 C234.7005282 218.79612051 234.67250691 231.72337969 234.60915451 244.65193351 C234.55967712 255.11680671 234.57595475 265.57990547 234.63989258 276.04467773 C234.71458785 288.27290553 234.74422503 300.49984129 234.71119446 312.72830647 C234.69394301 319.17355138 234.69381026 325.61746329 234.74127388 332.06258583 C235.07057478 382.90489069 235.07057478 382.90489069 220 404 C218.89884638 405.72161976 217.80885093 407.45043509 216.73097229 409.1867218 C213.99368691 413.58939447 211.04215828 417.80405728 208 422 C207.50113281 422.69802734 207.00226563 423.39605469 206.48828125 424.11523438 C199.87664157 433.33583727 192.78678266 441.75586113 185 450 C183.43355096 451.76734104 181.87084775 453.53801155 180.3125 455.3125 C177.10845724 458.87947858 173.79513356 462.09460386 170.12890625 465.1796875 C167.70090762 467.25573771 165.39224363 469.439328 163.0625 471.625 C152.98507062 480.77369792 142.09190367 488.86488489 130.625 496.1875 C129.944375 496.62562012 129.26375 497.06374023 128.5625 497.51513672 C127.07742718 498.44161965 125.56922661 499.3316703 124.04440022 500.19115639 C121.77430545 501.53994305 119.73086411 502.91273724 117.60430431 504.45467186 C102.3710407 514.69803769 85.5905714 513.37015812 68.00658906 513.16065621 C63.40634455 513.11703984 58.80621922 513.13211534 54.20582581 513.13967896 C46.256026 513.14489565 38.30705364 513.11380579 30.35746193 513.05730057 C18.86416234 512.97566053 7.3712585 512.94994873 -4.12229959 512.93742065 C-22.77438619 512.9155918 -41.42603282 512.84919964 -60.07788086 512.75439453 C-78.18495499 512.66245475 -96.29190916 512.59174407 -114.39916992 512.54931641 C-116.07634781 512.54537555 -116.07634781 512.54537555 -117.78740808 512.54135509 C-123.39727606 512.52830371 -129.00714489 512.51566687 -134.61701429 512.50323606 C-181.07831408 512.39974795 -227.53913422 512.22377424 -274 512 C-271.37100481 510.24733654 -269.95902854 509.57822466 -267.01780701 508.8195343 C-266.20984177 508.60813309 -265.40187653 508.39673187 -264.56942749 508.17892456 C-263.68598663 507.95399323 -262.80254578 507.72906189 -261.89233398 507.49731445 C-260.95830246 507.25467361 -260.02427094 507.01203278 -259.06193542 506.76203918 C-255.95801317 505.95709973 -252.85207258 505.16024477 -249.74609375 504.36328125 C-247.57050475 503.80051731 -245.39505624 503.23721001 -243.21974182 502.67338562 C-237.46553627 501.18332378 -231.70963862 499.69990726 -225.95330811 498.21807861 C-219.06796046 496.44459628 -212.18423297 494.66483852 -205.30074501 492.88415337 C-199.78748058 491.45793333 -194.27363477 490.0340902 -188.75814819 488.6164856 C-179.88219041 486.33140028 -171.01242674 484.04231441 -162.19580078 481.53662109 C-160.97079361 481.19140915 -159.74578644 480.8461972 -158.48365784 480.49052429 C-156.36862174 479.88751144 -154.25747956 479.270538 -152.15196228 478.63508606 C-147.05824889 477.18071051 -143.9699562 476.57190498 -139 479 C-138.31486328 479.30566895 -137.62972656 479.61133789 -136.92382812 479.92626953 C-136.29927734 480.24192871 -135.67472656 480.55758789 -135.03125 480.8828125 C-108.29723423 494.12631358 -79.70426233 502.72968878 -50 506 C-49.19071045 506.0928125 -48.3814209 506.185625 -47.54760742 506.28125 C-39.5216167 507.11457804 -31.49928783 507.24314059 -23.4375 507.25 C-22.3581015 507.25101212 -22.3581015 507.25101212 -21.25689697 507.25204468 C48.68992767 507.14885551 111.2472913 478.12147235 161 430 C163.45791304 427.42596508 165.72974092 424.73927964 168 422 C168.78246094 421.11699219 169.56492187 420.23398437 170.37109375 419.32421875 C184.3899432 403.42456987 195.35131338 385.81786719 205 367 C205.55977539 365.94111572 205.55977539 365.94111572 206.13085938 364.86083984 C216.92795345 344.38586266 223.92953813 320.71621114 228 298 C228.16081055 297.14035645 228.32162109 296.28071289 228.48730469 295.39501953 C233.44035894 267.77535925 233.28092351 236.54786093 228 209 C227.80664062 207.9805127 227.61328125 206.96102539 227.4140625 205.91064453 C217.90591862 157.54089718 195.37495551 113.3524424 161 78 C160.08347656 77.04480469 160.08347656 77.04480469 159.1484375 76.0703125 C150.31611119 66.88610068 141.28789449 58.51755237 131 51 C130.34950684 50.5157959 129.69901367 50.0315918 129.02880859 49.53271484 C91.46081196 21.63657432 46.56090303 5.0970583 0 1 C0 0.67 0 0.34 0 0 Z " fill="#000000" transform="translate(279,0)"/>
<path d="M0 0 C1.88856055 0.00934406 3.77713336 0.01645263 5.66571045 0.0214386 C10.59786387 0.04038313 15.52926223 0.08937331 20.46112061 0.1449585 C25.5091328 0.19642411 30.55726892 0.21901055 35.60546875 0.24414062 C45.48209966 0.29750621 55.35817415 0.38266394 65.234375 0.48828125 C65.234375 0.81828125 65.234375 1.14828125 65.234375 1.48828125 C64.39350342 1.57746826 64.39350342 1.57746826 63.53564453 1.66845703 C-1.5949926 8.8087631 -63.86316407 39.01624459 -106.328125 89.73828125 C-107.823661 91.64220279 -109.30061901 93.56076923 -110.765625 95.48828125 C-111.27947754 96.15279297 -111.79333008 96.81730469 -112.32275391 97.50195312 C-121.16661765 108.9709843 -128.89642623 120.7400639 -135.765625 133.48828125 C-136.12317871 134.14296387 -136.48073242 134.79764648 -136.84912109 135.47216797 C-152.05348878 163.54903423 -160.71936092 193.92569719 -164.765625 225.48828125 C-164.86875 226.25390381 -164.971875 227.01952637 -165.078125 227.80834961 C-166.0736605 236.18595862 -166.00936814 244.62607737 -166.015625 253.05078125 C-166.01629974 253.86919495 -166.01697449 254.68760864 -166.01766968 255.53082275 C-165.99920463 269.69506536 -165.18577682 283.50814573 -162.765625 297.48828125 C-162.6099707 298.4107666 -162.45431641 299.33325195 -162.29394531 300.28369141 C-157.54223828 327.3475557 -148.1049858 355.7839 -133.62755394 379.34002876 C-132.51083281 382.12331962 -132.91861427 383.44507217 -133.71304321 386.31686401 C-133.97376617 387.28658646 -134.23448914 388.2563089 -134.50311279 389.25541687 C-134.8032428 390.31307755 -135.1033728 391.37073822 -135.41259766 392.46044922 C-135.71799469 393.57971298 -136.02339172 394.69897675 -136.33804321 395.85215759 C-137.35494539 399.5654986 -138.39220519 403.27282993 -139.4296875 406.98046875 C-140.14164797 409.56405127 -140.85248455 412.14791723 -141.56185913 414.73220825 C-143.24554852 420.85622566 -144.94399362 426.97604958 -146.64766252 433.09453499 C-148.57025538 440.00215191 -150.47590555 446.91440355 -152.38031697 453.82705092 C-164.03699469 496.12991006 -164.03699469 496.12991006 -168.765625 512.48828125 C-169.095625 512.48828125 -169.425625 512.48828125 -169.765625 512.48828125 C-169.88225033 500.43006806 -169.97070758 488.37199236 -170.02468586 476.31332684 C-170.05061249 470.7120163 -170.08569563 465.11109588 -170.14282227 459.51000977 C-170.19775286 454.08938154 -170.22717229 448.66912492 -170.24001122 443.24823952 C-170.24914284 441.19568862 -170.26696923 439.14315457 -170.29427528 437.090765 C-170.45018378 424.8694021 -169.49439791 414.08799626 -165.90324402 402.36750793 C-163.60324999 394.82304707 -164.15451604 389.78638583 -167.25830078 382.5799408 C-171.01656703 372.78776176 -170.51398153 362.67732246 -170.5078125 352.33422852 C-170.52444017 350.12318896 -170.54308161 347.91216378 -170.56356812 345.70115662 C-170.61174831 339.72950151 -170.62782305 333.75818972 -170.63484192 327.78635907 C-170.64064224 324.04356457 -170.65331183 320.30085648 -170.66833496 316.5580883 C-170.71781482 304.14032894 -170.7457999 291.72274002 -170.74687958 279.30489183 C-170.74694252 278.63781513 -170.74700546 277.97073842 -170.74707031 277.28344727 C-170.74712822 276.61553726 -170.74718613 275.94762725 -170.74724579 275.25947755 C-170.74956425 264.45696118 -170.80521601 253.65546179 -170.8849833 242.85326541 C-170.96660492 231.70962425 -171.00524288 220.56640172 -171.00395012 209.42244571 C-171.00397829 203.18674274 -171.02074857 196.95226197 -171.08148193 190.7168293 C-171.13728409 184.84155529 -171.13879878 178.96857487 -171.1012764 173.0931797 C-171.09638283 170.95647275 -171.10968761 168.81961978 -171.14417648 166.68318558 C-171.39671768 149.96471308 -166.97329174 137.96016837 -158.765625 123.48828125 C-158.29701805 122.65137131 -157.8284111 121.81446137 -157.34560394 120.95219052 C-150.00830445 107.92195629 -141.02542109 96.20251196 -131.765625 84.48828125 C-131.30381836 83.89901855 -130.84201172 83.30975586 -130.36621094 82.70263672 C-124.25050102 74.91516694 -117.5665137 67.67412591 -110.765625 60.48828125 C-110.01539063 59.68390625 -109.26515625 58.87953125 -108.4921875 58.05078125 C-102.63415039 51.95319615 -96.09744793 46.88629186 -89.40234375 41.7578125 C-87.17173453 40.02762635 -85.00378373 38.2243258 -82.828125 36.42578125 C-72.23636613 27.95928558 -60.64594204 21.02594669 -48.75195312 14.56738281 C-46.77774518 13.49486571 -44.81065712 12.41005386 -42.84375 11.32421875 C-41.56821443 10.62797827 -40.29219141 9.93262987 -39.015625 9.23828125 C-37.90703125 8.635 -36.7984375 8.03171875 -35.65625 7.41015625 C-34.36029836 6.76766538 -33.0633293 6.12722468 -31.765625 5.48828125 C-31.00330566 5.07107315 -30.24098633 4.65386505 -29.45556641 4.22401428 C-19.75883027 -0.53972673 -10.53854013 -0.15440948 0 0 Z " fill="#000000" transform="translate(169.765625,-0.48828125)"/>
</svg>
